# xmcd CD database file
#
# Track frame offsets:
#	182
#	12900
#	27202
#	41332
#	54312
#	68550
#	81542
#	94120
#	109315
#	123040
#	136235
#	149982
#	164830
#	178660
#	192202
#	206340
#	221287
#	234905
#	249267
#	263630
#	277747
#
# Disc length: 3889 seconds
#
# Revision: 0
# Processed by: cddbd v1.4PL0 Copyright (c) Steve Scherf et al.
# Submitted via: CDex 1.50
#
DISCID=210f2f15
DTITLE=Fletcher Henderson - 1924
DYEAR=1992
DGENRE=Jazz
TTITLE0=Chicago Blues
TTITLE1=Why Put The Blame On You?
TTITLE2=Sud Bustin' Blues
TTITLE3=War Horse Mama
TTITLE4=Wish I Had You (And I'm Gonna Get You Blues)
TTITLE5=Just Blues
TTITLE6=I'm Crazy Over You
TTITLE7=I Wish I Could Make You Cry
TTITLE8=Say Say Sadie
TTITLE9=Chicago Blues 
TTITLE10=Feelin' The Way I Do
TTITLE11=Chattanooga (Down In Tennessee)
TTITLE12=Ghost Of The Blues
TTITLE13=Tea Pot Dome Blues
TTITLE14=Mobile Blues
TTITLE15=My Papa Doesn't Two-Time No Time
TTITLE16=Somebody Stole My Gal
TTITLE17=After The Storm
TTITLE18=Driftwood
TTITLE19=Feeling The Way I Do
TTITLE20=Red Hot Mama
EXTD=YEAR: 1992
EXTT0=
EXTT1=
EXTT2=
EXTT3=
EXTT4=
EXTT5=
EXTT6=
EXTT7=
EXTT8=
EXTT9=
EXTT10=
EXTT11=
EXTT12=
EXTT13=
EXTT14=
EXTT15=
EXTT16=
EXTT17=
EXTT18=
EXTT19=
EXTT20=
PLAYORDER=
